<svg width="116px" height="95px" xmlns="http://www.w3.org/2000/svg" viewBox="0 0 299.97 203.01"><defs><style>.cls-1{fill:#0085af;}.cls-2{fill:#00618b;}.cls-3{fill:#276488;}.cls-4{fill:#275163;}.cls-5{fill:#124b5f;}.cls-6{fill:#00589f;}.cls-7{fill:#9d7d41;}.cls-8{fill:#0f82a5;}.cls-9{fill:#1f5776;}.cls-10{fill:#bab0a7;}.cls-11{fill:#d7ccc1;}.cls-12{fill:#227b9b;}.cls-13{fill:#30a6ce;}.cls-14{fill:#37d2fa;}.cls-15{fill:#bc7294;}.cls-16{fill:#9b5b77;}.cls-17{fill:#bf7293;}.cls-18{fill:#373838;}.cls-19{fill:#4c484f;}.cls-20{fill:#91d2e9;}.cls-21{fill:#005a82;}.cls-22{fill:#825e33;}.cls-23{fill:none;}.cls-24{fill:#008ca1;}.cls-25{fill:#434348;}.cls-26{fill:#35333d;}.cls-27{fill:#f4b116;}.cls-28{fill:#919191;}.cls-29{fill:#fff;}.cls-30{fill:#19374c;}.cls-31{fill:#ffe200;}.cls-32{fill:#175d99;}.cls-33{fill:#67666b;}.cls-34{fill:#3b3a3e;}.cls-35{fill:#f2e3d6;}.cls-36{fill:#958464;}.cls-37{fill:#6b6b6f;}.cls-38{fill:#8ec349;}.cls-39{fill:#ce9c3e;}</style></defs><title>小车</title><path class="cls-1" d="M493.21,316.07l-3.69.2-5.93-2.93a5.35,5.35,0,0,0-3.58.19c-1.78.81-.63-2.38-.63-2.38l7.13-3.35,3.15.47Z" transform="translate(-271.81 -194.68)"/><path class="cls-1" d="M498,327.42l-3.45.19-4.95,16.81s-.17,1.62-2.69,1.56.26,4.82.26,4.82l8-4.49,3.41-8,.08-3.61Z" transform="translate(-271.81 -194.68)"/><path class="cls-1" d="M496.49,304.45s3.76-.47,3.89,1.86-3.9,14.72-3.9,14.72l8.5,4.7s.87,4.24-1.32,4.76,1.43,3.16,1.43,3.16l5-3.51,0-7.65-3.08-8-1-11.22-7.16-3.64-2.75,2.78Z" transform="translate(-271.81 -194.68)"/><path class="cls-2" d="M521.56,280.13s-43.62,32.5-49.93,32-12.82,4.29-12.82,4.29l15,45.32s4.33.83,13.36-6.88,37.62-35.14,37.62-35.14l-1.62-30.39Zm-13.45,48.59a3.81,3.81,0,0,1-5.17,1.47l-5-2.77-4.63,16.75a3.8,3.8,0,1,1-7.33-2l5.12-18.53-9.46-5.27a3.81,3.81,0,0,1-1.47-5.17h0a3.81,3.81,0,0,1,5.17-1.47l7.84,4.37,3-10.92a3.81,3.81,0,0,1,4.68-2.65h0a3.81,3.81,0,0,1,2.65,4.68L500,319.87l6.59,3.67A3.81,3.81,0,0,1,508.11,328.72Z" transform="translate(-271.81 -194.68)"/><ellipse class="cls-3" cx="501.32" cy="287.52" rx="11.69" ry="15.93" transform="translate(-77.85 582.25) rotate(-87.71)"/><path class="cls-1" d="M479.64,262.51l-52-7.59h0L397.1,271.65l-1.49,13.9,54,25.28c1.1-.17,21.61,5,21.61,5l72.06-50.77Z" transform="translate(-271.81 -194.68)"/><path class="cls-1" d="M325.34,310.94s54.85-41.8,102.3-56,9.88,33.94,9.88,33.94Z" transform="translate(-271.81 -194.68)"/><path class="cls-4" d="M539,230.38s.7.35.26-4.65a.57.57,0,0,0-.15-.56,8.69,8.69,0,0,0-2.24-.49l-2.64,1.52L533,228.06l2.61,1.83Z" transform="translate(-271.81 -194.68)"/><path class="cls-1" d="M419.54,255.36s116.44,2.49,121.17,3.09S526,277.22,526,277.22l-27.4,2.49L455,267.26Z" transform="translate(-271.81 -194.68)"/><path class="cls-5" d="M431.82,362.69,420,362.11l-3,5.59-1.17.84-1.18-.33c-6.42-1.75-26.61-3.19-31.57-2.85-3.18.22-12.5,5-19.07,8.9l-7.4-.37.5,5.25c-1.06,2,12.85,2.92,16.45,3.06s12.65,1.65,22.15,2a27.91,27.91,0,0,0,7.32-.61s13.64-10.24,15.78-11.54a5.78,5.78,0,0,0,1.61-1.21Z" transform="translate(-271.81 -194.68)"/><path class="cls-6" d="M356.61,373.88c1.06-2,21-13.44,26-13.78s25.15,1.1,31.57,2.85,5.75,2.43,5.75,2.43.54.13-1.6,1.43-15.78,11.54-15.78,11.54a27.91,27.91,0,0,1-7.32.61c-9.49-.38-18.54-1.88-22.15-2S355.56,375.9,356.61,373.88Z" transform="translate(-271.81 -194.68)"/><path class="cls-3" d="M471.41,364.08a89.39,89.39,0,0,0,9.25-4.54c2.79-1.78-3.44-5.67-3.44-5.67L473,357.56Z" transform="translate(-271.81 -194.68)"/><path class="cls-7" d="M456.22,289.45s19.37-5,24-9,6.44-.74,6.44-.74L486.1,285l.68,2.84s-19.85,14.28-30.41,13.52-4.36-6.77-4.36-6.77Z" transform="translate(-271.81 -194.68)"/><polygon class="cls-4" points="71.37 53.86 71.14 59.63 79.03 59.95 79.2 55.56 73.68 53.67 71.37 53.86"/><circle class="cls-8" cx="455.28" cy="312.98" r="6.27" transform="translate(-147.49 560.68) rotate(-87.71)"/><path class="cls-9" d="M560.42,219.56a10.73,10.73,0,0,0,.74-1.32l-3.5-.14v0a3.66,3.66,0,0,0-1.75.41c-4,2-12.23,9.91-12.23,9.91a28.09,28.09,0,0,0-8.12,12.16c-1,3.15-2.07,6.66-3.53,10.16a37.63,37.63,0,0,1-8.92,13.43c-3.76,3.47,2,2.67,8.33,1.09-1.16-.43-1.91-1.16-.91-2.45,2.3-3,4.82-8.64,7.41-16.17a32.58,32.58,0,0,1,8.8-12.74s5.74-7.19,8.22-3.82-1.8,6.91-2.14,7.22a45.58,45.58,0,0,0-6.87,9.07c-2.74,5-7.41,15.34-7.41,15.34a4.33,4.33,0,0,1-1.17,1.94c3.65-1.06,6.5-2,6.5-2a57.08,57.08,0,0,1,12.65-21.74s6.31-5,6.42-11.52C563,224.7,562,221.38,560.42,219.56Z" transform="translate(-271.81 -194.68)"/><path class="cls-2" d="M559.38,218.67c-4,2-12.23,9.91-12.23,9.91A28.09,28.09,0,0,0,539,240.74c-1,3.15-2.07,6.66-3.53,10.16a37.63,37.63,0,0,1-8.92,13.43c-3.76,3.47,2,2.67,8.33,1.09-1.16-.43-1.91-1.16-.91-2.45,2.3-3,4.82-8.64,7.41-16.17a32.58,32.58,0,0,1,8.8-12.74s5.74-7.19,8.22-3.82-1.8,6.91-2.14,7.22a45.58,45.58,0,0,0-6.87,9.07c-2.74,5-7.41,15.34-7.41,15.34a4.33,4.33,0,0,1-1.17,1.94c3.65-1.06,6.5-2,6.5-2A57.08,57.08,0,0,1,560,240.07s6.31-5,6.42-11.52S563.39,216.65,559.38,218.67Z" transform="translate(-271.81 -194.68)"/><rect class="cls-10" x="465.28" y="262.25" width="7.13" height="42.85" rx="1.52" ry="1.52" transform="translate(-260.08 -213.22) rotate(2.29)"/><rect class="cls-11" x="462.8" y="262.84" width="7.13" height="42.85" rx="1.52" ry="1.52" transform="translate(-260.06 -213.12) rotate(2.29)"/><rect class="cls-10" x="353.74" y="253.98" width="7.13" height="42.85" rx="1.52" ry="1.52" transform="translate(-273.9 -191.95) rotate(-0.44)"/><rect class="cls-11" x="351.28" y="254.69" width="7.13" height="42.85" rx="1.52" ry="1.52" transform="translate(-273.91 -191.97) rotate(-0.44)"/><path class="cls-12" d="M325.23,313.55s-10,9.42-15,4.2-6.19-14.21-15-17-20.57-3.88-22.43,10,3.82,24.37,19.79,34.17,24.34,13.19,37.91,17.44S325.23,313.55,325.23,313.55ZM288.59,323a6.18,6.18,0,1,1,6.43-5.93A6.18,6.18,0,0,1,288.59,323Z" transform="translate(-271.81 -194.68)"/><path class="cls-13" d="M325.34,310.94s-7.22,4.85-14.9,2c-6.78-2.54-6.29-12-15.13-14.74-4.72-1.47-10.26-1.35-14.16.7-3.48,1.83-6.47,3.39-8.27,9.3-4.08,13.4,3.82,24.37,19.79,34.17s24.34,13.19,37.91,17.44S325.34,310.94,325.34,310.94Zm-36.65,9.49a6.18,6.18,0,1,1,6.43-5.93A6.18,6.18,0,0,1,288.69,320.43Z" transform="translate(-271.81 -194.68)"/><path class="cls-14" d="M476.72,333s1.67-20-13.43-20.61l-128.35-5.14s-15.68-.63-13.72,15.74S320,361.32,339.88,365.6s61.85,9.75,95.76,5.58,35.77-6.28,38.16-9.43C477,357.52,476.72,333,476.72,333Z" transform="translate(-271.81 -194.68)"/><ellipse class="cls-15" cx="446.42" cy="331.51" rx="6.47" ry="5.3" transform="translate(-327.81 -101.43) rotate(-11.23)"/><ellipse class="cls-15" cx="338.3" cy="328.91" rx="5.3" ry="6.47" transform="translate(-363.01 329.6) rotate(-68.65)"/><path class="cls-16" d="M401.59,348.24l.4-.14c1.42-.61,10-4.37,10.37-6.74a2.47,2.47,0,0,0-2-3,1.93,1.93,0,0,0-1.6.37c-1,.61-13.69,7.34-23.37,6.26s-10.59-2.06-13.87-3.6a36.67,36.67,0,0,1-5.81-3.38,3.38,3.38,0,0,0-1.82-.73,1.68,1.68,0,0,0-1.44.47c-.85,1-1,2.21,1,3.7s7.83,7.35,18.45,8.92C392.37,351.88,398.19,349.23,401.59,348.24Z" transform="translate(-271.81 -194.68)"/><path class="cls-16" d="M411,343.62s-2.52-3.27-5.1-2.77-1.81,2.84-3.2,3.54-4.38.91-4.67,2.55-.23,4.11,3,6.83,6.41,5.79,10.3,2.37A7.35,7.35,0,0,0,413.3,348,16.48,16.48,0,0,0,411,343.62Z" transform="translate(-271.81 -194.68)"/><path class="cls-17" d="M410.2,343.3a3.09,3.09,0,0,0-3.23-1.71c-2.2.43-2.52,3.05-3.7,3.65s-4.56,1.41-4.81,2.81,0,2.12,2.79,4.45,5.49,5,8.82,2a6.75,6.75,0,0,0,1.93-7A11.59,11.59,0,0,0,410.2,343.3Z" transform="translate(-271.81 -194.68)"/><path class="cls-18" d="M456.28,291.41c0-4.75-.77-13.47-8.84-19s-56.19-7.62-85.64-7.56c-16.5,0-23.63,3.88-26.72,7.26h0a35.39,35.39,0,0,0-5.14,6.06l1.13,3.41,1.43-.4c-.91,19,2.06,21.91,2.43,22.89s3.05,5.5,15,7.83,80.05,1.57,94.7,1.73l2.51,2.89s4.2-2.8,6.19-6.38h0C457.73,304.83,456.3,294.81,456.28,291.41Z" transform="translate(-271.81 -194.68)"/><path class="cls-19" d="M328.85,281.55s-.38-12.21,29.07-12.27,77.57,2.07,85.64,7.56,8.81,14.2,8.84,19,2.81,22.43-11.58,22.27-82.92.61-94.82-1.73-14.56-6.78-15-7.83S327.29,304.23,328.85,281.55Z" transform="translate(-271.81 -194.68)"/><path class="cls-20" d="M469.84,328.54l-1-7.6-4-.16h0c-1-.23-2.09.88-3.3,4.66-3.82,11.92-8.68,24.37-15.94,31.35s-13.45,14.55-13,27.55,12,13.13,12,13.13a3.42,3.42,0,0,0,.48,0h0l4.1.16.42-1.42c3.78-2,9-7.19,13.42-20.29,0,0,4.24-8.85,4.59-17.56.3-7.55,1.55-17,1-26.18Z" transform="translate(-271.81 -194.68)"/><path class="cls-21" d="M472.72,328.22s-2.91-14.51-6.73-2.6S457.31,350,450,357s-13.45,14.55-13,27.55,12,13.13,12,13.13,10.61,1.84,18.42-21.51c0,0,4.24-8.85,4.59-17.56S474.05,338.6,472.72,328.22Z" transform="translate(-271.81 -194.68)"/><path class="cls-22" d="M501.07,266.48c-.47.48-.91.86-1.19,1.1s-.41.32-.52.31v0c-.53,6-10,17.31-10,17.31s-1.1,1.15-1.09,1.16c.27-.22,8.52-8.22,11.73-10.48A35.69,35.69,0,0,0,501.07,266.48Z" transform="translate(-271.81 -194.68)"/><path class="cls-23" d="M509.17,271.21s0,.62.06,1.64c1.31-1.35,2.81-3.52,1.34-5.78a22.53,22.53,0,0,0-3.67-4.51s-3.47-4.14-5.13-4.5-4.71-.77-1.51,2.08,6.78,6.12,7,9.91c.16,2.89-.08,4.15.27,4.19C508.05,268.26,509.17,271.21,509.17,271.21Z" transform="translate(-271.81 -194.68)"/><path class="cls-22" d="M482.55,244.29a3.39,3.39,0,0,0,.41,2.55s8.85,6.66,9.15,6.93c-3.2-2.85-.15-2.44,1.51-2.08a1.82,1.82,0,0,1,.33.11h0A136.12,136.12,0,0,0,482.55,244.29Z" transform="translate(-271.81 -194.68)"/><path class="cls-5" d="M343.11,253.89C346,249.79,402,227.07,416,226.54s88.45-5.52,106.62-1.74,16.3,5.16,16.3,5.16,1.52.28-4.48,2.87-61.64,31.67-61.64,31.67a107.06,107.06,0,0,1-20.63,1c-26.8-1.07-52.39-4.45-62.55-4.85S340.18,258,343.11,253.89Z" transform="translate(-271.81 -194.68)"/><path class="cls-24" d="M343.34,248c2.93-4.1,76.3-34,90.28-34.55s71,3.06,89.16,6.84,16.3,5.16,16.3,5.16,1.52.28-4.48,2.87S473,258.63,473,258.63a107.06,107.06,0,0,1-20.63,1c-26.8-1.07-52.39-4.45-62.55-4.85S340.42,252.11,343.34,248Z" transform="translate(-271.81 -194.68)"/><path class="cls-25" d="M471.87,254.67s-.15-5.13-.3-10.08a10,10,0,0,1,.62-4.11h0v0L457,238.75c0,.17,0,.34,0,.52-.14,3.44,0,14.22,0,14.22a4,4,0,0,0,3.27,2.16c2.63.46,11.59,1.79,11.59,1.79a8.24,8.24,0,0,0,3.37-.68C472.32,256.52,471.87,254.67,471.87,254.67Z" transform="translate(-271.81 -194.68)"/><path class="cls-26" d="M490.08,234.41a4.79,4.79,0,0,0-.46-2.36l-13,23.82c2.9-2.07,13-9.21,13-9.21Z" transform="translate(-271.81 -194.68)"/><path class="cls-26" d="M488.1,230.54l-14.34,7.87s-2.35,1.23-2.19,6.18.3,10.08.3,10.08.45,1.85,3.35,2.09a5,5,0,0,0,.82-.48l.57-.41,13-23.82A3.28,3.28,0,0,0,488.1,230.54Z" transform="translate(-271.81 -194.68)"/><path class="cls-25" d="M464.75,237.78c-3.93-.75-6.22-.48-7.52-.05a5.21,5.21,0,0,0-.24,1l15.18,1.75C472.09,239.85,472.17,239.2,464.75,237.78Z" transform="translate(-271.81 -194.68)"/><path class="cls-25" d="M395.06,225.75" transform="translate(-271.81 -194.68)"/><path class="cls-25" d="M385.11,224" transform="translate(-271.81 -194.68)"/><path class="cls-27" d="M490.14,274.89c4.16-.34,7.94-7.68,7.49-12.64s-10-9.85-17.87-11.29c-5.85-1.07-2.11,2.28.28,4.1,1.2.55,2.16.89,2.43,1.09.85.63,9.39,6.67,7.71,12.27a13.53,13.53,0,0,1-2.74,4.54C487.52,274,488.12,275.06,490.14,274.89Z" transform="translate(-271.81 -194.68)"/><path class="cls-7" d="M477.52,243.52s-4.66-.84-3.95,4.64c.48,3.7,4,5.76,6.46,6.9-2.39-1.82-6.14-5.17-.28-4.1,7.87,1.44,17.42,6.33,17.87,11.29s-3.33,12.3-7.49,12.64c-2,.17-2.61-.84-2.7-1.93-3.43,4.08-8.64,7.94-9.06,10.47-.58,3.47-.64,5.21,1.13,6.37s1-.86,2.19-2.49c.82-1.15,4.42,1,5.08.47,0,0,2.08-2,2.08-2s10-11.87,10.5-17.88v0c-.34,0-.11-1.3-.27-4.19-.21-3.79-3.79-7.06-7-9.91-.3-.27-9.15-6.93-9.15-6.93Z" transform="translate(-271.81 -194.68)"/><path class="cls-7" d="M510.51,261.82c-.66-4.17-1.94-7.79-4.91-11a12.92,12.92,0,0,0,1.36,2.28c2.51,3.38,2.22,6.38.56,7-1.85.69-2.37-.79-5-3.95s-2.44-6.35-.07-7.42a1.82,1.82,0,0,1,.64-.16,27,27,0,0,0-3.24-2.12l-10.92-6.11s-2.86-2.08-5.17,1.21a6.84,6.84,0,0,0-1.22,2.7,136.12,136.12,0,0,1,11.4,7.51h0c1.75.75,4.8,4.39,4.8,4.39a22.53,22.53,0,0,1,3.67,4.51c1.46,2.26,0,4.43-1.34,5.78a35.69,35.69,0,0,1-1.11,9.42,7.42,7.42,0,0,1,.69-.44C504.23,273.49,511.5,268,510.51,261.82Z" transform="translate(-271.81 -194.68)"/><path class="cls-11" d="M462.14,305.12a4,4,0,0,0,3.56,1.67,31.82,31.82,0,0,0,3.46-.12l-.06-1.56L466.83,304Z" transform="translate(-271.81 -194.68)"/><polygon class="cls-10" points="199.58 110.11 197.34 112 197.28 110.44 199.24 109.52 199.58 110.11"/><path class="cls-19" d="M442.08,314.32l-4.24.73c-.09-3.94-17.93-10.61-17.93-10.61l-38.34,1.65-30.1,9a19.11,19.11,0,0,1,6.54,8.08c2.69,5.77,3.31,8,12.17,9.14,6.45.82,16.28,2.34,25.09,1.93h0c7.75.06,16.07-1.37,17.56-4.07,0,0,12.06-11.1,20.94-12.11S442.08,314.32,442.08,314.32Z" transform="translate(-271.81 -194.68)"/><ellipse class="cls-28" cx="409.72" cy="303.56" rx="19" ry="23.15" transform="translate(-306.97 -140.32) rotate(-7.28)"/><path class="cls-28" d="M442.52,299.45c-1-12.61-10.17-22.19-20.52-21.38-1.17.09-8.76,1.17-9.85,1.51L404.56,281l1.09,2.35c-4.83,4.47-7.68,11.8-7.05,19.83.85,10.87,7.79,19.48,16.32,21.13l-.09,1.74,6.73-1.89c.42-.1.83-.21,1.23-.35h0l6.82-2.23C438,318.85,443.38,310.5,442.52,299.45Z" transform="translate(-271.81 -194.68)"/><ellipse class="cls-29" cx="409.72" cy="303.56" rx="16.24" ry="19.8" transform="translate(-306.97 -140.32) rotate(-7.28)"/><path class="cls-30" d="M413.36,302a13.52,13.52,0,0,0,4.14-2.5c1.57-1.41,2.87-3.25.92-4.49-3.55-2.25-11.73,3.07-11.73,3.07s-6.25,3.79-3.22,7.22c1.09,1.23,2,2.4,2.9,3.38,2,2.07,3.95,3.68,5,4,1.58.43,4.81.56,4.63-2.52-.09-1.48-2.77-2.67-4.23-3.92S409.58,303.48,413.36,302Z" transform="translate(-271.81 -194.68)"/><ellipse class="cls-28" cx="351.44" cy="298.98" rx="18.64" ry="22.72" transform="translate(-306.86 -147.74) rotate(-7.28)"/><path class="cls-28" d="M382.54,295.12c-1-12.38-7.43-20.78-17.58-20-1.15.09-10.07,0-11.15.33l-7.44,1.44,1.07,2.31c-4.73,4.39-7.53,11.57-6.92,19.45.83,10.67,7.64,19.11,16,20.73l-.09,1.71,6.61-1.85c.41-.1,1.24-.35,1.24-.35h0C375.85,315.46,383.39,306,382.54,295.12Z" transform="translate(-271.81 -194.68)"/><ellipse class="cls-29" cx="351.44" cy="298.98" rx="15.93" ry="19.42" transform="translate(-306.86 -147.74) rotate(-7.28)"/><ellipse class="cls-30" cx="356.1" cy="299.04" rx="9.89" ry="7.05" transform="translate(-228.77 448.2) rotate(-87.71)"/><path class="cls-25" d="M378.67,243.86a27.41,27.41,0,0,1-1.06-7.74,8.3,8.3,0,0,1,.68-3.4h0v0l-12.58-2.08c0,.14,0,.28-.06.43-.26,2.86.75,12.19.75,12.19s.75,1.41,1.34,1.59c2.14.63,9.58,2,9.58,2a6.87,6.87,0,0,0,2.84-.43A1.74,1.74,0,0,1,378.67,243.86Z" transform="translate(-271.81 -194.68)"/><path class="cls-25" d="M372.21,230.16c-3.24-.79-5.16-.65-6.26-.35a4.35,4.35,0,0,0-.24.84l12.58,2.08C378.24,232.19,378.34,231.64,372.21,230.16Z" transform="translate(-271.81 -194.68)"/><polygon class="cls-10" points="139.94 54.51 150.01 55.52 156.04 50.16 147.28 49.09 139.94 54.51"/><polygon class="cls-10" points="158.71 50.1 165.3 48 171.88 53.84 164.62 56.55 158.71 50.1"/><polygon class="cls-10" points="155.01 39.8 161.63 40.7 165.14 36.51 160.16 35.75 155.01 39.8"/><polygon class="cls-10" points="163.38 41.72 165.61 45.08 175.78 44.52 173.38 41.22 163.38 41.72"/><polygon class="cls-10" points="146.53 44.13 145.82 47.41 134.56 47.41 137.28 43.89 146.53 44.13"/><polygon class="cls-10" points="147.79 42.16 152.59 40.16 146.43 36.66 142.01 39.01 147.79 42.16"/><polygon class="cls-11" points="139.86 52.9 149.92 53.91 155.96 48.55 147.19 47.48 139.86 52.9"/><polygon class="cls-11" points="158.62 48.49 165.21 46.4 171.79 52.23 164.53 54.95 158.62 48.49"/><polygon class="cls-11" points="154.92 38.19 161.54 39.1 165.05 34.91 160.07 34.15 154.92 38.19"/><polygon class="cls-11" points="163.29 40.11 165.52 43.47 175.69 42.92 173.3 39.61 163.29 40.11"/><polygon class="cls-11" points="146.44 42.52 145.74 45.8 134.48 45.81 137.19 42.28 146.44 42.52"/><polygon class="cls-11" points="147.71 40.55 152.5 38.55 146.34 35.06 141.93 37.41 147.71 40.55"/><polygon class="cls-10" points="139.86 52.9 139.94 54.51 141.97 53.94 141.84 53.1 139.86 52.9"/><polygon class="cls-10" points="155.96 48.55 156.04 50.16 154.38 49.95 155.96 48.55"/><polygon class="cls-10" points="134.48 45.81 134.56 47.41 136.93 46.62 135.68 45.81 134.48 45.81"/><polygon class="cls-10" points="146.44 42.52 146.53 44.13 146.09 44.15 146.44 42.52"/><polygon class="cls-10" points="141.93 37.41 142.01 39.01 143.84 38.91 143.81 38.43 141.93 37.41"/><polygon class="cls-10" points="152.5 38.55 152.59 40.16 150.82 40.13 150.92 39.21 152.41 38.62 152.5 38.55"/><polygon class="cls-10" points="154.92 38.19 155.01 39.8 156.72 38.45 154.92 38.19"/><polygon class="cls-10" points="152.5 38.55 150.92 39.21 151.8 39.89 152.33 39.21 152.5 38.55"/><polygon class="cls-10" points="154.92 38.19 157.87 38.6 157.7 39.04 156.34 39.08 154.92 38.19"/><polygon class="cls-10" points="165.05 34.91 165.14 36.51 163.87 36.32 165.05 34.91"/><polygon class="cls-10" points="163.3 40.19 163.38 41.72 164.37 41.73 163.29 40.11 163.3 40.19"/><polygon class="cls-10" points="175.69 42.92 175.78 44.52 174.25 44.01 174.66 42.97 175.69 42.92"/><polygon class="cls-10" points="158.62 48.49 158.71 50.1 159.78 49.76 158.62 48.49"/><polygon class="cls-10" points="171.79 52.23 171.88 53.84 170.06 53.78 170.58 52.69 171.79 52.23"/><path class="cls-10" d="M527.42,236.34l-1.36,34a1,1,0,0,1-.05.27l1.56.06a1,1,0,0,0,1-.9l1.39-34.65Z" transform="translate(-271.81 -194.68)"/><path class="cls-11" d="M521.42,269.44l1.23-30.69L520.14,240l-1.2,30a1,1,0,0,0,.93,1l5.19.21a1,1,0,0,0,.95-.66l-3.68-.15A1,1,0,0,1,521.42,269.44Z" transform="translate(-271.81 -194.68)"/><path class="cls-11" d="M527.42,236.34l-4.77,2.4-1.23,30.69a1,1,0,0,0,.9,1l3.68.15a1,1,0,0,0,.05-.27Z" transform="translate(-271.81 -194.68)"/><ellipse class="cls-31" cx="419.82" cy="245.41" rx="3.09" ry="0.86" transform="translate(-284.54 -171.49) rotate(-3.12)"/><ellipse class="cls-31" cx="437.23" cy="245.18" rx="2.67" ry="1.57" transform="translate(-284.5 -170.55) rotate(-3.12)"/><ellipse class="cls-31" cx="441.64" cy="236.18" rx="2.48" ry="0.99" transform="translate(-284 -170.32) rotate(-3.12)"/><ellipse class="cls-31" cx="432.38" cy="231.2" rx="2.05" ry="1.37" transform="translate(-283.74 -170.83) rotate(-3.12)"/><ellipse class="cls-31" cx="419.12" cy="232.57" rx="2.12" ry="1.21" transform="translate(-283.84 -171.55) rotate(-3.12)"/><ellipse class="cls-31" cx="413.24" cy="238.53" rx="2.68" ry="0.93" transform="translate(-284.17 -171.86) rotate(-3.12)"/><polygon class="cls-10" points="205.86 15.82 206.52 32.65 222.73 22.48 222.62 7.9 205.86 15.82"/><polygon class="cls-10" points="168.53 12.94 169.14 28.57 185.4 19.6 185.29 5.02 168.53 12.94"/><path class="cls-5" d="M494.93,202.16s0,0,0-.12l-.69-3.31-1.68.6-3.38,1a209.66,209.66,0,0,0-25.42-2.25c-2.79.06-13.6,3.94-20.66,6.84l-7-.44.72,3.43c-.89,1.2,10.75,2.06,13.76,2.23s10.58,1.29,18.52,1.73a31.74,31.74,0,0,0,6.12-.21s16.6-8,18.39-8.69S494.93,202.16,494.93,202.16Z" transform="translate(-271.81 -194.68)"/><path class="cls-6" d="M436.08,204.51c.89-1.2,22.78-9.73,26.92-9.82s21,1.24,26.4,2.44,4.81,1.61,4.81,1.61.45.09-1.34.83-18.39,8.69-18.39,8.69a31.74,31.74,0,0,1-6.12.21c-7.94-.44-15.51-1.56-18.52-1.73S435.2,205.71,436.08,204.51Z" transform="translate(-271.81 -194.68)"/><polyline class="cls-11" points="206.52 32.65 203.57 32.42 202.74 17.13 203.38 17.01 205.86 15.82"/><polygon class="cls-11" points="165.84 13.95 166.59 27.67 169.14 28.57 168.59 14.51 165.84 13.95"/><ellipse class="cls-11" cx="418.04" cy="227.73" rx="6.06" ry="2.13" transform="translate(-283.58 -171.62) rotate(-3.12)"/><polygon class="cls-11" points="139.48 20.55 140.18 33.38 148.55 32.92 152.28 32.72 151.58 19.89 146.69 19.79 139.48 20.55"/><ellipse class="cls-32" cx="417.34" cy="214.9" rx="6.06" ry="2.13" transform="translate(-282.88 -171.67) rotate(-3.12)"/><polygon class="cls-11" points="195.56 25.18 196.35 39.54 205.72 39.03 209.89 38.8 209.11 24.44 203.64 24.32 195.56 25.18"/><ellipse class="cls-32" cx="474.15" cy="219.49" rx="6.78" ry="2.38" transform="translate(-283.05 -168.58) rotate(-3.12)"/><path class="cls-33" d="M562.83,259.24s-3.53-6.43-22-7.61c-.29,0-.57,0-.86-.05h-.08a8.48,8.48,0,0,0-3,.3c-11.25,2.4-21.84,18.85-24.88,40-3.16,21.95,2.91,41.34,13.77,45.95h0c4.91,3.38,23.34,2,23.34,2l.07-14.27h0c4.41-7,7.8-16.41,9.31-26.94a80.93,80.93,0,0,0,.82-10.39c1,1.05,1.67,1.65,1.67,1.65Z" transform="translate(-271.81 -194.68)"/><ellipse class="cls-34" cx="551.06" cy="297.49" rx="42.52" ry="20.38" transform="translate(-72.26 621.09) rotate(-84.22)"/><ellipse class="cls-35" cx="552.02" cy="297.5" rx="35.73" ry="15.98" transform="translate(-71.4 622.05) rotate(-84.22)"/><path class="cls-10" d="M555.55,261.95a8.21,8.21,0,0,0-4.75,1c6.59,4.48,10.34,19,8.64,35.77-1.63,16.06-7.76,29.14-14.75,32.89a7.87,7.87,0,0,0,3.65,1.39c8.78.89,17.51-14.31,19.5-33.94S564.33,262.84,555.55,261.95Z" transform="translate(-271.81 -194.68)"/><path class="cls-36" d="M552.92,294s.07-3.76-.76-4.65-3.6-.49-3.6-.49h0c-2.06.31-4,3-4.49,6.6-.54,3.79.72,7.14,2.84,7.74h0a6.72,6.72,0,0,0,2.54.39l.51-1.41a9.72,9.72,0,0,0,2.51-5.52,12.27,12.27,0,0,0,.12-1.77Z" transform="translate(-271.81 -194.68)"/><ellipse class="cls-10" cx="550.49" cy="296.43" rx="7.29" ry="4.25" transform="translate(-92.62 604.79) rotate(-81.87)"/><ellipse class="cls-37" cx="550.9" cy="296.29" rx="4.25" ry="2.47" transform="translate(-92.12 605.07) rotate(-81.87)"/><path class="cls-38" d="M473.76,238.41l14.34-7.87a4.75,4.75,0,0,0-1.9-.44l-11.29-.45L460,234.71a5.22,5.22,0,0,0-2.81,3c1.3-.42,3.59-.7,7.52.05,7.35,1.4,7.34,2.06,7.43,2.7h0A4.08,4.08,0,0,1,473.76,238.41Z" transform="translate(-271.81 -194.68)"/><path class="cls-26" d="M393.55,239.8l-11.82,6.51s-3.37.78-3.57-1.16,4.69-6,4.69-6l2.78-.89Z" transform="translate(-271.81 -194.68)"/><path class="cls-25" d="M396.07,235.54a24.26,24.26,0,0,1-.94-6.85,7.35,7.35,0,0,1,.6-3h0l-11.13-1.84c0,.12,0,.25-.05.38-.23,2.53.66,10.79.66,10.79s.66,1.25,1.19,1.41c1.89.56,8.48,1.74,8.48,1.74a6.09,6.09,0,0,0,2.51-.38A1.54,1.54,0,0,1,396.07,235.54Z" transform="translate(-271.81 -194.68)"/><path class="cls-26" d="M408.9,220.1a2.42,2.42,0,0,0-1.07-1.17L397,224.21s-1.77.82-1.84,4.48a67,67,0,0,0,.48,8,2.32,2.32,0,0,0,1.78,1.1,3.69,3.69,0,0,0,.62-.32c.1-.07,1.23-.22,1.42-.33,2.21-1.42,9.81-5.19,9.81-5.19l-.08-10.1A3.53,3.53,0,0,0,408.9,220.1Z" transform="translate(-271.81 -194.68)"/><path class="cls-25" d="M390.35,223.42a11.41,11.41,0,0,0-5.54-.31,3.85,3.85,0,0,0-.21.74l11.13,1.84C395.69,225.21,395.77,224.73,390.35,223.42Z" transform="translate(-271.81 -194.68)"/><path class="cls-38" d="M397,224.21l11.65-4.59a1.88,1.88,0,0,0-1.56-1.09c-3.18-.28-8.93-.73-8.93-.73L387,221a3.85,3.85,0,0,0-2.18,2.12,11.41,11.41,0,0,1,5.54.31c5.37,1.3,5.34,1.78,5.38,2.26h0A3,3,0,0,1,397,224.21Z" transform="translate(-271.81 -194.68)"/><path class="cls-26" d="M409.24,232l-10.46,5.76s-3,.69-3.16-1,4.15-5.33,4.15-5.33l2.46-.79Z" transform="translate(-271.81 -194.68)"/><path class="cls-26" d="M393.17,226.41a2.73,2.73,0,0,0-1.21-1.32l-12.26,6s-2,.93-2.08,5.06a75.67,75.67,0,0,0,.54,9,2.62,2.62,0,0,0,2,1.25,4.17,4.17,0,0,0,.71-.36c.11-.07,1.39-.24,1.6-.38,2.5-1.61,11.08-5.86,11.08-5.86l-.1-11.41A4,4,0,0,0,393.17,226.41Z" transform="translate(-271.81 -194.68)"/><path class="cls-38" d="M379.69,231.05l13.16-5.19a2.12,2.12,0,0,0-1.76-1.23c-3.59-.32-10.09-.83-10.09-.83l-12.59,3.6a4.35,4.35,0,0,0-2.47,2.4c1.1-.3,3-.43,6.26.35,6.06,1.47,6,2,6.08,2.55h0A3.4,3.4,0,0,1,379.69,231.05Z" transform="translate(-271.81 -194.68)"/><path class="cls-39" d="M502.52,256.19c2.64,3.16,3.16,4.64,5,3.95,1.66-.62,1.94-3.63-.56-7a12.92,12.92,0,0,1-1.36-2.28,20.29,20.29,0,0,0-2.5-2.25,1.82,1.82,0,0,0-.64.16C500.08,249.84,499.88,253,502.52,256.19Z" transform="translate(-271.81 -194.68)"/></svg>